<svg xmlns="http://www.w3.org/2000/svg" width="22" height="18" fill="none" viewBox="0 0 22 18"><path fill="#fff" d="M11.8238 17.622C11.7007 17.5025 11.6031 17.3607 11.5365 17.2044C11.4699 17.0482 11.4356 16.8807 11.4356 16.7115C11.4356 16.5423 11.4699 16.3748 11.5365 16.2186C11.6031 16.0624 11.7007 15.9205 11.8238 15.8011L17.4865 10.2859H1.31974C0.969723 10.2859 0.634042 10.1505 0.386543 9.90947C0.139044 9.66843 -3.21653e-07 9.3415 -3.21653e-07 9.00061C-3.21653e-07 8.65972 0.139044 8.33279 0.386543 8.09174C0.634042 7.8507 0.969723 7.71528 1.31974 7.71528L17.4865 7.71528L11.8238 2.198C11.5758 1.95654 11.4366 1.62904 11.4366 1.28756C11.4366 0.946077 11.5758 0.618582 11.8238 0.377117C12.0717 0.135653 12.408 3.5981e-09 12.7586 0C13.1092 -3.5981e-09 13.4455 0.135653 13.6934 0.377117L21.6118 8.08909C21.7349 8.20851 21.8325 8.3504 21.8991 8.50663C21.9657 8.66287 22 8.83037 22 8.99954C22 9.1687 21.9657 9.33621 21.8991 9.49244C21.8325 9.64868 21.7349 9.79057 21.6118 9.90998L13.6934 17.622C13.5708 17.7418 13.4251 17.8369 13.2647 17.9017C13.1043 17.9666 12.9323 18 12.7586 18C12.5849 18 12.4129 17.9666 12.2525 17.9017C12.0921 17.8369 11.9464 17.7418 11.8238 17.622Z"/></svg>